<?xml version="1.0" encoding="UTF-8"?> <svg xmlns="http://www.w3.org/2000/svg" width="24" height="24" viewBox="0 0 24 24" fill="none"><path fill-rule="evenodd" clip-rule="evenodd" d="M6.75 11.5C6.61192 11.5 6.5 11.6119 6.5 11.75V17.25C6.5 17.9404 7.05964 18.5 7.75 18.5H16.25C16.9404 18.5 17.5 17.9404 17.5 17.25V11.75C17.5 11.6119 17.3881 11.5 17.25 11.5H6.75ZM5 11.75C5 10.7835 5.78352 10 6.75 10H17.25C18.2165 10 19 10.7835 19 11.75V17.25C19 18.7688 17.7688 20 16.25 20H7.75C6.23122 20 5 18.7688 5 17.25V11.75Z" fill="#011B1B"></path><path fill-rule="evenodd" clip-rule="evenodd" d="M12 5.5C10.5578 5.5 9.75133 5.96804 9.28322 6.44772C8.88985 6.85081 8.68168 7.3913 8.58141 8.07559C8.49394 8.67246 8.49642 9.30603 8.49907 9.98462C8.49953 10.1026 8.5 10.2219 8.5 10.3427V10.5C8.5 10.9142 8.16421 11.25 7.75 11.25C7.33579 11.25 7 10.9142 7 10.5V10.3427C7 10.2353 6.99947 10.1247 6.99892 10.0115C6.99568 9.33889 6.99201 8.57637 7.09726 7.8581C7.22262 7.00264 7.51268 6.11434 8.20969 5.40009C8.98525 4.60536 10.1912 4 12 4C13.8088 4 15.0147 4.60536 15.7903 5.4001C16.4873 6.11434 16.7774 7.00264 16.9027 7.85809C17.008 8.57639 17.0043 9.33895 17.0011 10.0116C17.0005 10.1247 17 10.2353 17 10.3427V10.5C17 10.9142 16.6642 11.25 16.25 11.25C15.8358 11.25 15.5 10.9142 15.5 10.5V10.3427C15.5 10.222 15.5005 10.1027 15.5009 9.98473C15.5036 9.3061 15.5061 8.6725 15.4186 8.0756C15.3183 7.39131 15.1101 6.85082 14.7167 6.44772C14.2487 5.96805 13.4422 5.5 12 5.5Z" fill="#011B1B"></path></svg> 